<svg width="920" height="227" viewBox="0 0 920 227" fill="none" xmlns="http://www.w3.org/2000/svg">
<rect y="96.3451" width="34.0041" height="34.0041" rx="17.0021" fill="#4880FF"/>
<rect x="63.2854" y="68.0084" width="34.0041" height="90.6776" rx="17.0021" fill="#4880FF"/>
<rect x="126.571" y="33.0597" width="34.0041" height="160.575" rx="17.0021" fill="#4880FF"/>
<rect x="189.856" y="89.2609" width="34.0041" height="48.1725" rx="17.0021" fill="#4880FF"/>
<rect x="253.142" y="0.000152588" width="34.0041" height="226.694" rx="17.0021" fill="#4880FF"/>
<rect x="316.427" y="33.0597" width="34.0041" height="160.575" rx="17.0021" fill="#4880FF"/>
<rect x="379.713" y="68.0084" width="34.0041" height="90.6776" rx="17.0021" fill="#4880FF"/>
<rect x="442.998" y="89.7332" width="34.0041" height="47.2279" rx="17.0021" fill="#4880FF"/>
<rect x="506.283" y="68.0084" width="34.0041" height="90.6776" rx="17.0021" fill="#4880FF"/>
<rect x="569.569" y="33.0597" width="34.0041" height="160.575" rx="17.0021" fill="#4880FF"/>
<rect x="632.854" y="68.0084" width="34.0041" height="90.6776" rx="17.0021" fill="#4880FF"/>
<rect x="696.14" y="0.000152588" width="34.0041" height="226.694" rx="17.0021" fill="#4880FF"/>
<rect x="759.425" y="33.0597" width="34.0041" height="160.575" rx="17.0021" fill="#4880FF"/>
<rect x="822.71" y="68.0084" width="34.0041" height="90.6776" rx="17.0021" fill="#4880FF"/>
<rect x="885.996" y="96.3451" width="34.0041" height="34.0041" rx="17.0021" fill="#4880FF"/>
</svg>
