<svg width="347" height="283" viewBox="0 0 347 283" fill="none" xmlns="http://www.w3.org/2000/svg">
<path d="M0.715777 278.216C0.715777 275.9 2.59313 274.023 4.90895 274.023C7.22478 274.023 9.10213 275.9 9.10213 278.216C9.10213 280.532 7.22478 282.409 4.90895 282.409C2.59313 282.409 0.715777 280.532 0.715777 278.216ZM288.444 168.183C288.751 167.876 289.249 167.876 289.556 168.183L294.559 173.186C294.866 173.493 294.866 173.991 294.559 174.298C294.252 174.605 293.755 174.605 293.448 174.298L289 169.851L284.552 174.298C284.245 174.605 283.748 174.605 283.441 174.298C283.134 173.991 283.134 173.493 283.441 173.186L288.444 168.183ZM4.12273 278.216L4.12272 215.219H5.69516L5.69518 278.216L4.12273 278.216ZM10.4125 208.93H283.496V210.502H10.4125V208.93ZM288.214 204.212V168.739H289.786V204.212H288.214ZM283.496 208.93C286.102 208.93 288.214 206.818 288.214 204.212H289.786C289.786 207.686 286.97 210.502 283.496 210.502V208.93ZM4.12272 215.219C4.12272 211.746 6.93874 208.93 10.4125 208.93V210.502C7.80718 210.502 5.69516 212.614 5.69516 215.219H4.12272Z" fill="#4880FF"/>
<rect x="102.485" y="0.786221" width="116.361" height="68.0081" rx="6.68288" fill="white" stroke="#4880FF" stroke-width="1.57244"/>
<rect x="102.485" y="79.8015" width="116.361" height="68.0081" rx="6.68288" fill="white" stroke="#4880FF" stroke-width="1.57244"/>
<rect x="229.853" y="0.786221" width="116.361" height="68.0081" rx="6.68288" fill="white" stroke="#4880FF" stroke-width="1.57244"/>
<rect x="229.853" y="79.3668" width="116.361" height="68.0081" rx="6.68288" fill="#4880FF" stroke="#4880FF" stroke-width="1.57244"/>
<path d="M289.369 104.401C291.324 104.401 292.908 102.817 292.908 100.862C292.908 98.9076 291.324 97.3231 289.369 97.3231C287.414 97.3231 285.83 98.9076 285.83 100.862C285.83 102.817 287.414 104.401 289.369 104.401Z" stroke="white" stroke-width="1.82428"/>
<path d="M300.99 116.667C302.945 116.667 304.529 115.082 304.529 113.128C304.529 111.173 302.945 109.589 300.99 109.589C299.036 109.589 297.451 111.173 297.451 113.128C297.451 115.082 299.036 116.667 300.99 116.667Z" stroke="white" stroke-width="1.82428"/>
<path d="M289.369 128.202C291.324 128.202 292.908 126.618 292.908 124.663C292.908 122.709 291.324 121.124 289.369 121.124C287.414 121.124 285.83 122.709 285.83 124.663C285.83 126.618 287.414 128.202 289.369 128.202Z" stroke="white" stroke-width="1.82428"/>
<path d="M277.596 123.009C279.551 123.009 281.136 121.425 281.136 119.47C281.136 117.515 279.551 115.931 277.596 115.931C275.642 115.931 274.057 117.515 274.057 119.47C274.057 121.425 275.642 123.009 277.596 123.009Z" stroke="white" stroke-width="1.82428"/>
<path d="M277.596 109.169C279.551 109.169 281.136 107.584 281.136 105.63C281.136 103.675 279.551 102.091 277.596 102.091C275.642 102.091 274.057 103.675 274.057 105.63C274.057 107.584 275.642 109.169 277.596 109.169Z" stroke="white" stroke-width="1.82428"/>
<path d="M289.364 114.569C290.942 114.569 292.222 113.289 292.222 111.711C292.222 110.132 290.942 108.853 289.364 108.853C287.785 108.853 286.506 110.132 286.506 111.711C286.506 113.289 287.785 114.569 289.364 114.569Z" stroke="white" stroke-width="1.82428"/>
<path d="M280.643 103.824L285.952 101.774" stroke="white" stroke-width="1.82428"/>
<path d="M291.85 103.392L298.466 110.647" stroke="white" stroke-width="1.82428"/>
<path d="M298.825 115.925L291.893 122.182" stroke="white" stroke-width="1.82428"/>
<path d="M279.542 108.585L287.174 121.89" stroke="white" stroke-width="1.82428"/>
<path d="M280.729 121.118L285.831 123.483" stroke="white" stroke-width="1.82428"/>
<path d="M278.922 116.186L287.454 103.836" stroke="white" stroke-width="1.82428"/>
<path d="M280.856 107.016L286.828 110.391" stroke="white" stroke-width="1.82428"/>
<path d="M292.227 112.033L297.451 112.428" stroke="white" stroke-width="1.82428"/>
<path d="M289.363 114.575L289.369 121.118" stroke="white" stroke-width="1.82428"/>
</svg>
