<svg width="998" height="487" viewBox="0 0 998 487" fill="none" xmlns="http://www.w3.org/2000/svg">
<path d="M0.333333 133C0.333333 138.891 5.10896 143.667 11 143.667C16.891 143.667 21.6667 138.891 21.6667 133C21.6667 127.109 16.891 122.333 11 122.333C5.10896 122.333 0.333333 127.109 0.333333 133ZM848.586 91.4142C849.367 92.1953 850.633 92.1953 851.414 91.4142L864.142 78.6863C864.923 77.9052 864.923 76.6389 864.142 75.8579C863.361 75.0768 862.095 75.0768 861.314 75.8579L850 87.1716L838.686 75.8579C837.905 75.0768 836.639 75.0768 835.858 75.8579C835.077 76.6389 835.077 77.9052 835.858 78.6863L848.586 91.4142ZM11 135H113.72V131H11V135ZM129.72 119V16H125.72V119H129.72ZM141.72 4H836V0H141.72V4ZM848 16V90H852V16H848ZM836 4C842.627 4 848 9.37258 848 16H852C852 7.16344 844.837 0 836 0V4ZM129.72 16C129.72 9.37258 135.093 4 141.72 4V0C132.883 0 125.72 7.16344 125.72 16H129.72ZM113.72 135C122.557 135 129.72 127.837 129.72 119H125.72C125.72 125.627 120.347 131 113.72 131V135Z" fill="#4880FF"/>
<rect x="376" y="111" width="296" height="173" rx="17" fill="white" stroke="#4880FF" stroke-width="4"/>
<rect x="376" y="312" width="296" height="173" rx="17" fill="white" stroke="#4880FF" stroke-width="4"/>
<rect x="700" y="111" width="296" height="173" rx="17" fill="#4880FF" stroke="#4880FF" stroke-width="4"/>
<rect x="700" y="312" width="296" height="173" rx="17" fill="white" stroke="#4880FF" stroke-width="4"/>
<path d="M851.397 174.683C856.369 174.683 860.4 170.653 860.4 165.681C860.4 160.708 856.369 156.678 851.397 156.678C846.425 156.678 842.395 160.708 842.395 165.681C842.395 170.653 846.425 174.683 851.397 174.683Z" stroke="white" stroke-width="4.64062"/>
<path d="M880.96 205.884C885.932 205.884 889.963 201.853 889.963 196.881C889.963 191.909 885.932 187.878 880.96 187.878C875.988 187.878 871.957 191.909 871.957 196.881C871.957 201.853 875.988 205.884 880.96 205.884Z" stroke="white" stroke-width="4.64062"/>
<path d="M851.397 235.228C856.369 235.228 860.4 231.198 860.4 226.225C860.4 221.253 856.369 217.223 851.397 217.223C846.425 217.223 842.395 221.253 842.395 226.225C842.395 231.198 846.425 235.228 851.397 235.228Z" stroke="white" stroke-width="4.64062"/>
<path d="M821.45 222.018C826.422 222.018 830.453 217.987 830.453 213.015C830.453 208.043 826.422 204.012 821.45 204.012C816.478 204.012 812.447 208.043 812.447 213.015C812.447 217.987 816.478 222.018 821.45 222.018Z" stroke="white" stroke-width="4.64062"/>
<path d="M821.45 186.811C826.422 186.811 830.453 182.781 830.453 177.808C830.453 172.836 826.422 168.806 821.45 168.806C816.478 168.806 812.447 172.836 812.447 177.808C812.447 182.781 816.478 186.811 821.45 186.811Z" stroke="white" stroke-width="4.64062"/>
<path d="M851.384 200.547C855.399 200.547 858.654 197.292 858.654 193.277C858.654 189.262 855.399 186.007 851.384 186.007C847.368 186.007 844.113 189.262 844.113 193.277C844.113 197.292 847.368 200.547 851.384 200.547Z" stroke="white" stroke-width="4.64062"/>
<path d="M829.201 173.214L842.705 168.001" stroke="white" stroke-width="4.64062"/>
<path d="M857.709 172.116L874.539 190.57" stroke="white" stroke-width="4.64062"/>
<path d="M875.453 203.997L857.818 219.914" stroke="white" stroke-width="4.64062"/>
<path d="M826.401 185.326L845.814 219.172" stroke="white" stroke-width="4.64062"/>
<path d="M829.418 217.207L842.396 223.224" stroke="white" stroke-width="4.64062"/>
<path d="M824.822 204.662L846.525 173.245" stroke="white" stroke-width="4.64062"/>
<path d="M829.742 181.335L844.932 189.92" stroke="white" stroke-width="4.64062"/>
<path d="M858.668 194.097L871.956 195.102" stroke="white" stroke-width="4.64062"/>
<path d="M851.383 200.563L851.398 217.207" stroke="white" stroke-width="4.64062"/>
</svg>
