<svg width="863" height="816" viewBox="0 0 863 816" fill="none" xmlns="http://www.w3.org/2000/svg">
<path d="M640.881 355.231L667.059 347.594V380.218L640.881 389.764V355.231Z" fill="#171E28"/>
<path d="M640.881 355.231L614.703 347.594V380.577L640.881 389.764V355.231Z" fill="#11151E"/>
<path d="M640.881 341.286L667.059 347.594L640.881 355.231L614.703 347.594L640.881 341.286Z" fill="#1E2633"/>
<path d="M631.496 423.484L673.187 406.759V460.65L631.496 479.233V423.484Z" fill="#171E28"/>
<path d="M631.496 423.484L589.805 406.759V461.35L631.496 479.233V423.484Z" fill="#11151E"/>
<path d="M631.496 390.034L673.187 406.759L631.496 423.484L589.805 406.759L631.496 390.034Z" fill="#1E2633"/>
<path d="M558.467 357.224L603.067 345.31V396.202L558.467 411.094V357.224Z" fill="#171E28"/>
<path d="M558.467 357.224L513.867 345.31V396.763L558.467 411.094V357.224Z" fill="#11151E"/>
<path d="M558.467 335.468L603.067 345.31L558.467 357.224L513.867 345.31L558.467 335.468Z" fill="#1E2633"/>
<path d="M724.263 151.252L781.467 132.83V198.437L724.263 221.06V151.252Z" fill="#171E28"/>
<path d="M724.263 151.252L667.058 132.83V199.289L724.263 221.06V151.252Z" fill="#11151E"/>
<path d="M724.263 116.347L781.467 132.83L724.263 151.252L667.058 132.83L724.263 116.347Z" fill="#1E2633"/>
<path d="M744.623 231.725L789.223 215.243V254.995L744.623 273.416V231.725Z" fill="#171E28"/>
<path d="M744.623 231.725L700.023 215.243V254.995L744.623 273.416V231.725Z" fill="#11151E"/>
<path d="M744.623 197.791L789.223 215.243L744.623 231.725L700.023 215.243L744.623 197.791Z" fill="#1E2633"/>
<path d="M724.407 278.264L754.319 267.599V297.494L724.407 308.32V278.264Z" fill="#171E28"/>
<path d="M724.407 278.264L657.363 255.964V284.081L724.407 308.32V278.264Z" fill="#11151E"/>
<path d="M690.37 246.269L754.319 267.599L724.407 278.264L657.363 255.964L690.37 246.269Z" fill="#1E2633"/>
<path d="M747.533 313.411L791.163 299.232V344.922L747.533 360.678V313.411Z" fill="#171E28"/>
<path d="M747.533 313.411L703.902 299.232V345.516L747.533 360.678V313.411Z" fill="#11151E"/>
<path d="M747.533 285.052L791.163 299.232L747.533 313.411L703.902 299.232L747.533 285.052Z" fill="#1E2633"/>
<path d="M714.566 368.918L756.257 352.193V406.085L714.566 424.668V368.918Z" fill="#171E28"/>
<path d="M714.566 368.918L672.875 352.193V406.785L714.566 424.668V368.918Z" fill="#11151E"/>
<path d="M714.566 335.468L756.257 352.193L714.566 368.918L672.875 352.193L714.566 335.468Z" fill="#1E2633"/>
<path d="M739.775 440.666L781.466 423.941V477.832L739.775 496.415V440.666Z" fill="#171E28"/>
<path d="M739.775 440.666L698.084 423.941V478.532L739.775 496.415V440.666Z" fill="#11151E"/>
<path d="M739.775 407.216L781.466 423.941L739.775 440.666L698.084 423.941L739.775 407.216Z" fill="#1E2633"/>
<path d="M163.855 618.823L205.546 597.371V666.493L163.855 690.328V618.823Z" fill="#171E28"/>
<path d="M163.855 618.823L122.164 597.371V667.391L163.855 690.328V618.823Z" fill="#11151E"/>
<path d="M163.855 575.92L205.546 597.371L163.855 618.823L122.164 597.371L163.855 575.92Z" fill="#1E2633"/>
<path d="M41.6915 314.611L69.8088 304.058V350.063L41.6915 362.616V314.611Z" fill="#171E28"/>
<path d="M41.6915 314.611L13.5742 304.058V350.66L41.6915 362.616V314.611Z" fill="#11151E"/>
<path d="M41.6915 294.747L69.8088 304.058L41.6915 314.611L13.5742 304.058L41.6915 294.747Z" fill="#1E2633"/>
<path d="M152.221 314.611L180.338 304.058V350.063L152.221 362.616V314.611Z" fill="#171E28"/>
<path d="M152.221 314.611L124.104 304.058V350.66L152.221 362.616V314.611Z" fill="#11151E"/>
<path d="M152.221 294.747L180.338 304.058L152.221 314.611L124.104 304.058L152.221 294.747Z" fill="#1E2633"/>
<path d="M109.56 341.77L151.252 325.045V378.937L109.56 397.52V341.77Z" fill="#171E28"/>
<path d="M109.56 341.77L67.8694 325.045V379.637L109.56 397.52V341.77Z" fill="#11151E"/>
<path d="M109.56 308.32L151.252 325.045L109.56 341.77L67.8694 325.045L109.56 308.32Z" fill="#1E2633"/>
<path d="M225.174 347.103L254.026 332.56V372.312L225.174 386.855V347.103Z" fill="#171E28"/>
<path d="M225.174 347.103L166.766 324.803V362.616L225.174 386.855V347.103Z" fill="#11151E"/>
<path d="M194.883 310.26L254.026 332.56L225.174 347.103L166.766 324.803L194.883 310.26Z" fill="#1E2633"/>
<path d="M163.855 365.04L205.546 348.315V402.206L163.855 420.789V365.04Z" fill="#171E28"/>
<path d="M163.855 365.04L122.164 348.315V402.906L163.855 420.789V365.04Z" fill="#11151E"/>
<path d="M163.855 331.59L205.546 348.315L163.855 365.04L122.164 348.315L163.855 331.59Z" fill="#1E2633"/>
<path d="M288.93 368.918L335.468 346.376V419.012L288.93 444.059V368.918Z" fill="#171E28"/>
<path d="M288.93 368.918L242.391 346.376V419.955L288.93 444.059V368.918Z" fill="#11151E"/>
<path d="M288.93 323.833L335.468 346.376L288.93 368.918L242.391 346.376L288.93 323.833Z" fill="#1E2633"/>
<path d="M224.937 392.349L271.476 376.656V432.544L224.937 451.815V392.349Z" fill="#171E28"/>
<path d="M224.937 392.349L178.398 376.656V433.27L224.937 451.815V392.349Z" fill="#11151E"/>
<path d="M224.937 362.616L271.476 376.656L224.937 392.349L178.398 376.656L224.937 362.616Z" fill="#1E2633"/>
<path d="M111.5 425.88L153.191 411.7V457.391L111.5 473.146V425.88Z" fill="#171E28"/>
<path d="M111.5 425.88L69.8086 411.7V457.984L111.5 473.146V425.88Z" fill="#11151E"/>
<path d="M111.5 397.521L153.191 411.7L111.5 425.88L69.8086 411.7L111.5 397.521Z" fill="#1E2633"/>
<path d="M322.865 163.856L350.983 153.191V183.086L322.865 193.913V163.856Z" fill="#171E28"/>
<path d="M322.865 163.856L259.844 141.556V169.674L322.865 193.913V163.856Z" fill="#11151E"/>
<path d="M290.87 131.861L350.983 153.191L322.865 163.856L259.844 141.556L290.87 131.861Z" fill="#1E2633"/>
<path d="M491.568 221.06L521.624 206.732V257.76L491.568 270.508V221.06Z" fill="#171E28"/>
<path d="M491.568 221.06L461.512 206.732V258.423L491.568 270.508V221.06Z" fill="#11151E"/>
<path d="M491.568 193.913L521.624 206.732L491.568 221.06L461.512 206.732L491.568 193.913Z" fill="#1E2633"/>
<path d="M477.258 250.835L506.11 238.316V272.533L477.258 285.052V250.835Z" fill="#171E28"/>
<path d="M477.258 250.835L418.85 231.64V264.188L477.258 285.052V250.835Z" fill="#11151E"/>
<path d="M446.967 219.122L506.11 238.316L477.258 250.835L418.85 231.64L446.967 219.122Z" fill="#1E2633"/>
<path d="M618.814 484.781L647.667 470.237V509.989L618.814 524.533V484.781Z" fill="#171E28"/>
<path d="M618.814 484.781L560.406 462.481V500.294L618.814 524.533V484.781Z" fill="#11151E"/>
<path d="M588.524 447.937L647.667 470.237L618.814 484.781L560.406 462.481L588.524 447.937Z" fill="#1E2633"/>
<path d="M816.371 321.895L862.91 302.503V381.038L816.371 399.459V321.895Z" fill="#171E28"/>
<path d="M816.371 321.895L769.832 302.503V381.038L816.371 399.459V321.895Z" fill="#11151E"/>
<path d="M816.371 283.112L862.91 302.503L816.371 321.895L769.832 302.503L816.371 283.112Z" fill="#1E2633"/>
<path d="M667.059 477.994L711.659 461.511V501.263L667.059 519.685V477.994Z" fill="#171E28"/>
<path d="M667.059 477.994L622.459 461.511V501.263L667.059 519.685V477.994Z" fill="#11151E"/>
<path d="M667.059 444.059L711.659 461.511L667.059 477.994L622.459 461.511L667.059 444.059Z" fill="#1E2633"/>
<path d="M213.524 695.58L240.453 685.278V716.183L213.524 727.171V695.58Z" fill="#171E28"/>
<path d="M213.524 695.58L159.01 673.846V703.902L213.524 727.171V695.58Z" fill="#11151E"/>
<path d="M180.027 661.241L240.453 685.278L213.524 695.58L159.01 673.846L180.027 661.241Z" fill="#1E2633"/>
<path d="M390.733 634.951L428.546 618.046V690.26L390.733 705.84V634.951Z" fill="#171E28"/>
<path d="M390.733 634.951L352.92 618.046V691.055L390.733 705.84V634.951Z" fill="#11151E"/>
<path d="M390.733 605.006L428.546 618.046L390.733 634.951L352.92 618.046L390.733 605.006Z" fill="#1E2633"/>
<path d="M185.188 744.995L211.366 737.358V769.981L185.188 779.527V744.995Z" fill="#171E28"/>
<path d="M185.188 744.995L159.01 737.358V770.34L185.188 779.527V744.995Z" fill="#11151E"/>
<path d="M185.188 731.049L211.366 737.358L185.188 744.995L159.01 737.358L185.188 731.049Z" fill="#1E2633"/>
<path d="M249.178 652.515L286.991 637.002V669.404L249.178 685.48V652.515Z" fill="#171E28"/>
<path d="M249.178 652.515L211.365 637.002V669.879L249.178 685.48V652.515Z" fill="#11151E"/>
<path d="M249.178 618.58L286.991 637.002L249.178 652.515L211.365 637.002L249.178 618.58Z" fill="#1E2633"/>
<path d="M336.438 596.28L374.251 580.767V613.17L336.438 629.245V596.28Z" fill="#171E28"/>
<path d="M336.438 596.28L298.625 580.767V613.644L336.438 629.245V596.28Z" fill="#11151E"/>
<path d="M336.438 562.346L374.251 580.767L336.438 596.28L298.625 580.767L336.438 562.346Z" fill="#1E2633"/>
<path d="M318.986 649.254L358.738 629.748V713.072L318.986 731.049V649.254Z" fill="#171E28"/>
<path d="M318.986 649.254L279.234 629.748V713.99L318.986 731.049V649.254Z" fill="#11151E"/>
<path d="M318.986 614.702L358.738 629.748L318.986 649.254L279.234 629.748L318.986 614.702Z" fill="#1E2633"/>
<path d="M291.104 732.989L319.956 720.385V760.137L291.104 774.68V732.989Z" fill="#171E28"/>
<path d="M291.104 732.989L232.695 710.689V750.441L291.104 774.68V732.989Z" fill="#11151E"/>
<path d="M260.813 698.085L319.956 720.385L291.104 732.989L232.695 710.689L260.813 698.085Z" fill="#1E2633"/>
<path d="M381.039 429.516L409.156 418.851V448.746L381.039 459.572V429.516Z" fill="#171E28"/>
<path d="M381.039 429.516L318.018 407.216V435.333L381.039 459.572V429.516Z" fill="#11151E"/>
<path d="M349.044 397.521L409.156 418.851L381.039 429.516L318.018 407.216L349.044 397.521Z" fill="#1E2633"/>
<path d="M681.6 45.0846L731.048 22.5423V95.1786L681.6 120.226V45.0846Z" fill="#171E28"/>
<path d="M681.6 45.0846L632.152 22.5423V96.1219L681.6 120.226V45.0846Z" fill="#11151E"/>
<path d="M681.6 0L731.048 22.5423L681.6 45.0846L632.152 22.5423L681.6 0Z" fill="#1E2633"/>
<path d="M262.75 182.278L300.563 163.856V229.463L262.75 252.086V182.278Z" fill="#171E28"/>
<path d="M262.75 182.278L224.938 163.856V230.315L262.75 252.086V182.278Z" fill="#11151E"/>
<path d="M262.75 147.374L300.563 163.856L262.75 182.278L224.938 163.856L262.75 147.374Z" fill="#1E2633"/>
<path d="M416.46 180.338L453.755 165.041V213.303L416.46 228.816V180.338Z" fill="#171E28"/>
<path d="M416.46 180.338L378.129 165.041V213.303L416.46 228.816V180.338Z" fill="#11151E"/>
<path d="M416.46 151.251L453.755 165.041L416.46 180.338L378.129 165.041L416.46 151.251Z" fill="#1E2633"/>
<path d="M628.275 91.785L676.753 76.0924V131.98L628.275 151.251V91.785Z" fill="#171E28"/>
<path d="M628.275 91.785L579.797 76.0924V132.706L628.275 151.251V91.785Z" fill="#11151E"/>
<path d="M628.275 62.0518L676.753 76.0924L628.275 91.785L579.797 76.0924L628.275 62.0518Z" fill="#1E2633"/>
<path d="M205.549 433.071L252.088 417.378V473.266L205.549 492.537V433.071Z" fill="#171E28"/>
<path d="M205.549 433.071L159.01 417.378V473.991L205.549 492.537V433.071Z" fill="#11151E"/>
<path d="M205.549 403.337L252.088 417.378L205.549 433.071L159.01 417.378L205.549 403.337Z" fill="#1E2633"/>
<path d="M573.98 128.629L622.458 112.936V168.824L573.98 188.095V128.629Z" fill="#171E28"/>
<path d="M573.98 128.629L525.502 112.936V169.549L573.98 188.095V128.629Z" fill="#11151E"/>
<path d="M573.98 98.8955L622.458 112.936L573.98 128.629L525.502 112.936L573.98 98.8955Z" fill="#1E2633"/>
<path d="M322.863 449.149L364.554 434.969V480.66L322.863 496.415V449.149Z" fill="#171E28"/>
<path d="M322.863 449.149L281.172 434.969V481.253L322.863 496.415V449.149Z" fill="#11151E"/>
<path d="M322.863 420.79L364.554 434.969L322.863 449.149L281.172 434.969L322.863 420.79Z" fill="#1E2633"/>
<path d="M529.381 60.5978L573.981 43.8729V97.7643L529.381 116.348V60.5978Z" fill="#171E28"/>
<path d="M529.381 60.5978L484.781 43.8729V98.4642L529.381 116.348V60.5978Z" fill="#11151E"/>
<path d="M529.381 27.1479L573.981 43.8729L529.381 60.5978L484.781 43.8729L529.381 27.1479Z" fill="#1E2633"/>
<path d="M250.044 246.542L288.93 232.877V271.18L250.044 285.052V246.542Z" fill="#171E28"/>
<path d="M250.044 246.542L162.887 217.97V253.996L250.044 285.052V246.542Z" fill="#11151E"/>
<path d="M205.795 205.548L288.93 232.877L250.044 246.542L162.887 217.97L205.795 205.548Z" fill="#1E2633"/>
<path d="M707.265 568.163L676.755 556.529V586.423L707.265 597.25V568.163Z" fill="#171E28"/>
<path d="M707.265 568.163L775.65 544.894V573.011L741.458 585.131L707.265 597.25V568.163Z" fill="#11151E"/>
<path d="M741.984 535.198L676.755 556.529L707.265 568.163L775.65 544.894L741.984 535.198Z" fill="#1E2633"/>
<path d="M584.646 526.472L612.764 515.807V545.702L584.646 556.528V526.472Z" fill="#171E28"/>
<path d="M584.646 526.472L521.625 504.172V532.289L584.646 556.528V526.472Z" fill="#11151E"/>
<path d="M552.651 494.477L612.764 515.807L584.646 526.472L521.625 504.172L552.651 494.477Z" fill="#1E2633"/>
<path d="M368.433 207.486L414.972 191.004V241.259L368.433 259.843V207.486Z" fill="#171E28"/>
<path d="M368.433 207.486L321.895 191.004V241.959L368.433 259.843V207.486Z" fill="#11151E"/>
<path d="M368.433 170.643L414.972 191.004L368.433 207.486L321.895 191.004L368.433 170.643Z" fill="#1E2633"/>
<path d="M310.26 265.9L356.799 250.714V297.017L310.26 314.138V265.9Z" fill="#171E28"/>
<path d="M310.26 265.9L263.721 250.714V297.661L310.26 314.138V265.9Z" fill="#11151E"/>
<path d="M310.26 234.634L356.799 250.714L310.26 265.9L263.721 250.714L310.26 234.634Z" fill="#1E2633"/>
<path d="M420.79 273.417L465.389 252.087V291.839L420.79 313.169V273.417Z" fill="#171E28"/>
<path d="M420.79 273.417L378.129 252.087V291.839L420.79 313.169V273.417Z" fill="#11151E"/>
<path d="M420.79 236.574L465.389 252.087L420.79 273.417L378.129 252.087L420.79 236.574Z" fill="#1E2633"/>
<path d="M77.565 263.721L120.226 248.208V292.161L77.565 308.321V263.721Z" fill="#171E28"/>
<path d="M77.565 263.721L34.9043 248.208V292.77L77.565 308.321V263.721Z" fill="#11151E"/>
<path d="M77.565 230.756L120.226 248.208L77.565 263.721L34.9043 248.208L77.565 230.756Z" fill="#1E2633"/>
<path d="M814.43 418.851L857.091 403.338V447.291L814.43 463.451V418.851Z" fill="#171E28"/>
<path d="M814.43 418.851L771.77 403.338V447.9L814.43 463.451V418.851Z" fill="#11151E"/>
<path d="M814.43 385.886L857.091 403.338L814.43 418.851L771.77 403.338L814.43 385.886Z" fill="#1E2633"/>
<path d="M433.408 73.6866L475.084 59.1431V102.773L433.408 118.286V73.6866Z" fill="#171E28"/>
<path d="M433.408 73.6866L349.041 44.5997V89.1995L433.408 118.286V73.6866Z" fill="#11151E"/>
<path d="M381.568 25.2085L475.084 59.1431L433.408 73.6866L349.041 44.5997L381.568 25.2085Z" fill="#1E2633"/>
<path d="M508.051 549.741L552.651 533.259V573.011L508.051 591.432V549.741Z" fill="#171E28"/>
<path d="M508.051 549.741L463.451 533.259V573.011L508.051 591.432V549.741Z" fill="#11151E"/>
<path d="M508.051 515.807L552.651 533.259L508.051 549.741L463.451 533.259L508.051 515.807Z" fill="#1E2633"/>
<path d="M663.18 514.837L707.78 498.355V538.107L663.18 556.529V514.837Z" fill="#171E28"/>
<path d="M663.18 514.837L618.58 498.355V538.107L663.18 556.529V514.837Z" fill="#11151E"/>
<path d="M663.18 480.903L707.78 498.355L663.18 514.837L618.58 498.355L663.18 480.903Z" fill="#1E2633"/>
<path d="M560.408 571.072L605.008 554.59V594.342L560.408 612.763V571.072Z" fill="#171E28"/>
<path d="M560.408 571.072L515.809 554.59V594.342L560.408 612.763V571.072Z" fill="#11151E"/>
<path d="M560.408 537.138L605.008 554.59L560.408 571.072L515.809 554.59L560.408 537.138Z" fill="#1E2633"/>
<path d="M456.662 680.02L494.475 662.302V737.988L456.662 754.318V680.02Z" fill="#171E28"/>
<path d="M456.662 680.02L418.85 662.302V738.822L456.662 754.318V680.02Z" fill="#11151E"/>
<path d="M456.662 647.666L494.475 662.302L456.662 680.02L418.85 662.302L456.662 647.666Z" fill="#1E2633"/>
<path d="M419.819 719.894L465.389 698.324V743.181L419.819 764.014V719.894Z" fill="#171E28"/>
<path d="M419.819 719.894L374.25 698.324V743.794L419.819 764.014V719.894Z" fill="#11151E"/>
<path d="M419.819 676.754L465.389 698.324L419.819 719.894L374.25 698.324L419.819 676.754Z" fill="#1E2633"/>
<path d="M369.403 720.273L407.216 703.368V775.582L369.403 791.163V720.273Z" fill="#171E28"/>
<path d="M369.403 720.273L331.59 703.368V776.378L369.403 791.163V720.273Z" fill="#11151E"/>
<path d="M369.403 690.328L407.216 703.368L369.403 720.273L331.59 703.368L369.403 690.328Z" fill="#1E2633"/>
<path d="M320.926 782.436L358.739 766.923V799.325L320.926 815.401V782.436Z" fill="#171E28"/>
<path d="M320.926 782.436L283.113 766.923V799.8L320.926 815.401V782.436Z" fill="#11151E"/>
<path d="M320.926 748.501L358.739 766.923L320.926 782.436L283.113 766.923L320.926 748.501Z" fill="#1E2633"/>
<path d="M614.701 539.077L661.24 522.594V617.853L614.701 634.094V539.077Z" fill="#171E28"/>
<path d="M614.701 539.077L568.162 522.594V618.903L614.701 634.094V539.077Z" fill="#11151E"/>
<path d="M614.701 504.172L661.24 522.594L614.701 539.077L568.162 522.594L614.701 504.172Z" fill="#1E2633"/>
<path d="M607.914 671.627L634.093 660.63V707.607L607.914 721.353V671.627Z" fill="#171E28"/>
<path d="M607.914 671.627L581.736 660.63V708.125L607.914 721.353V671.627Z" fill="#11151E"/>
<path d="M607.914 651.545L634.093 660.63L607.914 671.627L581.736 660.63L607.914 651.545Z" fill="#1E2633"/>
<path d="M629.245 698.775L655.423 687.778V734.755L629.245 748.502V698.775Z" fill="#171E28"/>
<path d="M629.245 698.775L603.066 687.778V735.273L629.245 748.502V698.775Z" fill="#11151E"/>
<path d="M629.245 678.693L655.423 687.778L629.245 698.775L603.066 687.778L629.245 678.693Z" fill="#1E2633"/>
<path d="M739.776 587.926L765.954 580.289V612.912L739.776 622.459V587.926Z" fill="#171E28"/>
<path d="M739.776 587.926L713.598 580.289V613.272L739.776 622.459V587.926Z" fill="#11151E"/>
<path d="M739.776 573.98L765.954 580.289L739.776 587.926L713.598 580.289L739.776 573.98Z" fill="#1E2633"/>
<path d="M320.924 777.96L347.102 770.323V802.947L320.924 812.493V777.96Z" fill="#171E28"/>
<path d="M320.924 777.96L294.746 770.323V803.306L320.924 812.493V777.96Z" fill="#11151E"/>
<path d="M320.924 764.015L347.102 770.323L320.924 777.96L294.746 770.323L320.924 764.015Z" fill="#1E2633"/>
<path d="M245.299 756.63L271.477 748.993V781.616L245.299 791.163V756.63Z" fill="#171E28"/>
<path d="M245.299 756.63L219.121 748.993V781.976L245.299 791.163V756.63Z" fill="#11151E"/>
<path d="M245.299 742.685L271.477 748.993L245.299 756.63L219.121 748.993L245.299 742.685Z" fill="#1E2633"/>
<path d="M366.494 279.718L413.033 262.993V316.885L366.494 335.468V279.718Z" fill="#171E28"/>
<path d="M366.494 279.718L319.955 262.993V317.585L366.494 335.468V279.718Z" fill="#11151E"/>
<path d="M366.494 246.269L413.033 262.993L366.494 279.718L319.955 262.993L366.494 246.269Z" fill="#1E2633"/>
<path d="M668.996 601.553L713.596 589.64V640.532L668.996 655.424V601.553Z" fill="#171E28"/>
<path d="M668.996 601.553L624.396 589.64V641.092L668.996 655.424V601.553Z" fill="#11151E"/>
<path d="M668.996 579.798L713.596 589.64L668.996 601.553L624.396 589.64L668.996 579.798Z" fill="#1E2633"/>
<path d="M262.75 451.816L300.563 433.394V499.001L262.75 521.624V451.816Z" fill="#171E28"/>
<path d="M262.75 451.816L224.938 433.394V499.853L262.75 521.624V451.816Z" fill="#11151E"/>
<path d="M262.75 416.912L300.563 433.394L262.75 451.816L224.938 433.394L262.75 416.912Z" fill="#1E2633"/>
<path d="M80.4736 477.025L120.226 462.481V506.111L80.4736 521.624V477.025Z" fill="#171E28"/>
<path d="M80.4736 477.025L0 447.938V492.538L80.4736 521.624V477.025Z" fill="#11151E"/>
<path d="M31.026 428.547L120.226 462.481L80.4736 477.025L0 447.938L31.026 428.547Z" fill="#1E2633"/>
<path d="M483.812 104.713L513.869 90.3852V141.413L483.812 154.161V104.713Z" fill="#171E28"/>
<path d="M483.812 104.713L453.756 90.3852V142.076L483.812 154.161V104.713Z" fill="#11151E"/>
<path d="M483.812 77.5654L513.869 90.3852L483.812 104.713L453.756 90.3852L483.812 77.5654Z" fill="#1E2633"/>
<path d="M685.48 651.788L727.171 630.336V699.458L685.48 723.293V651.788Z" fill="#171E28"/>
<path d="M685.48 651.788L643.789 630.336V700.356L685.48 723.293V651.788Z" fill="#11151E"/>
<path d="M685.48 608.885L727.171 630.336L685.48 651.788L643.789 630.336L685.48 608.885Z" fill="#1E2633"/>
<path d="M113.329 552.085L139.617 541.783V572.688L113.329 583.676V552.085Z" fill="#171E28"/>
<path d="M113.329 552.085L60.1131 530.35V560.407L113.329 583.676V552.085Z" fill="#11151E"/>
<path d="M80.6302 517.746L139.617 541.783L113.329 552.085L60.1131 530.35L80.6302 517.746Z" fill="#1E2633"/>
<path d="M149.312 509.511L186.155 493.774V526.646L149.312 542.954V509.511Z" fill="#171E28"/>
<path d="M149.312 509.511L112.469 493.774V527.127L149.312 542.954V509.511Z" fill="#11151E"/>
<path d="M149.312 475.085L186.155 493.774L149.312 509.511L112.469 493.774L149.312 475.085Z" fill="#1E2633"/>
<path d="M338.377 510.959L366.494 500.294V530.189L338.377 541.015V510.959Z" fill="#171E28"/>
<path d="M338.377 510.959L275.355 488.659V516.776L338.377 541.015V510.959Z" fill="#11151E"/>
<path d="M306.381 478.963L366.494 500.294L338.377 510.959L275.355 488.659L306.381 478.963Z" fill="#1E2633"/>
<path d="M286.021 536.41L327.712 522.23V567.921L286.021 583.676V536.41Z" fill="#171E28"/>
<path d="M286.021 536.41L244.33 522.23V568.514L286.021 583.676V536.41Z" fill="#11151E"/>
<path d="M286.021 508.05L327.712 522.23L286.021 536.41L244.33 522.23L286.021 508.05Z" fill="#1E2633"/>
<path d="M225.908 539.076L263.721 520.655V586.262L225.908 608.885V539.076Z" fill="#171E28"/>
<path d="M225.908 539.076L188.095 520.655V587.114L225.908 608.885V539.076Z" fill="#11151E"/>
<path d="M225.908 504.172L263.721 520.655L225.908 539.076L188.095 520.655L225.908 504.172Z" fill="#1E2633"/>
<path d="M627.76 327.712L597.249 316.077V345.972L627.76 356.799V327.712Z" fill="#171E28"/>
<path d="M627.76 327.712L696.145 304.442V332.559L661.952 344.679L627.76 356.799V327.712Z" fill="#11151E"/>
<path d="M662.478 294.747L597.249 316.077L627.76 327.712L696.145 304.442L662.478 294.747Z" fill="#1E2633"/>
<ellipse cx="484.111" cy="164.894" rx="18.7242" ry="11.7026" fill="#07BCCE" fill-opacity="0.6"/>
<ellipse cx="484.113" cy="164.892" rx="14.0431" ry="8.19183" fill="#69FE97"/>
<g filter="url(#filter0_f_109_262)">
<ellipse cx="484.113" cy="164.892" rx="14.0431" ry="8.19183" fill="#69FE97"/>
</g>
<ellipse cx="484.116" cy="164.893" rx="9.36209" ry="4.68104" fill="#5468E4"/>
<path d="M542.24 636.013L354.867 552.506C351.113 550.833 351.104 545.509 354.852 543.824L534.003 463.259C537.77 461.564 537.736 456.203 533.947 454.558L373.652 384.938C369.919 383.316 369.814 378.061 373.478 376.292L646.235 244.562C649.873 242.805 649.802 237.598 646.117 235.941L494.675 167.837" stroke="url(#paint0_linear_109_262)" stroke-width="4.75651" stroke-linecap="round"/>
<path d="M496.248 60.6096L496.249 60.6087C502.482 54.573 502.482 44.7838 496.249 38.7482C490.02 32.7168 479.925 32.7168 473.696 38.7482C467.463 44.7838 467.463 54.573 473.696 60.6087L473.696 60.6087C474.23 61.126 474.893 61.7612 475.685 62.5139L475.686 62.5147L481.984 68.4464L481.984 68.4469C483.651 70.0083 486.294 70.0085 487.961 68.4472C490.479 66.0898 492.528 64.161 494.106 62.6607L494.107 62.6601L496.248 60.6096ZM475.95 40.9523C480.932 36.1278 489.013 36.1278 493.995 40.9523C498.974 45.7725 498.974 53.5843 493.995 58.4044C493.423 58.9584 492.715 59.6372 491.869 60.4407C491.869 60.4408 491.869 60.441 491.869 60.4411L485.746 66.2066C485.746 66.2067 485.746 66.2067 485.746 66.2068C485.316 66.6095 484.63 66.6094 484.2 66.2064C481.964 64.1124 480.107 62.3654 478.63 60.9661C478.63 60.966 478.63 60.966 478.63 60.9659L475.95 58.4044C475.949 58.4043 475.949 58.4041 475.949 58.4039C470.972 53.5837 470.972 45.7723 475.95 40.9523ZM490.632 50.1591C490.632 47.1211 488.09 44.6716 484.973 44.6716C481.855 44.6716 479.314 47.1211 479.314 50.1591C479.314 53.1971 481.855 55.6465 484.973 55.6465C488.09 55.6465 490.632 53.1971 490.632 50.1591ZM482.509 50.1591C482.509 48.853 483.604 47.7809 484.973 47.7809C486.341 47.7809 487.437 48.853 487.437 50.1591C487.437 51.4652 486.341 52.5372 484.973 52.5372C483.604 52.5372 482.509 51.4652 482.509 50.1591Z" fill="url(#paint1_linear_109_262)" stroke="url(#paint2_linear_109_262)" stroke-width="0.489241"/>
<path d="M574.881 643.789C574.881 646.234 573.251 648.886 569.686 651.069C566.167 653.223 561.133 654.645 555.428 654.645C549.724 654.645 544.69 653.223 541.171 651.069C537.606 648.886 535.976 646.234 535.976 643.789C535.976 641.343 537.606 638.691 541.171 636.509C544.69 634.354 549.724 632.933 555.428 632.933C561.133 632.933 566.167 634.354 569.686 636.509C573.251 638.691 574.881 641.343 574.881 643.789Z" stroke="#69FF97" stroke-width="5.43601"/>
<g filter="url(#filter1_f_109_262)">
<path d="M574.881 643.789C574.881 646.234 573.251 648.886 569.686 651.069C566.167 653.223 561.133 654.645 555.428 654.645C549.724 654.645 544.69 653.223 541.171 651.069C537.606 648.886 535.976 646.234 535.976 643.789C535.976 641.343 537.606 638.691 541.171 636.509C544.69 634.354 549.724 632.933 555.428 632.933C561.133 632.933 566.167 634.354 569.686 636.509C573.251 638.691 574.881 641.343 574.881 643.789Z" stroke="#69FF97" stroke-width="5.43601"/>
</g>
<defs>
<filter id="filter0_f_109_262" x="459.198" y="145.828" width="49.8303" height="38.1277" filterUnits="userSpaceOnUse" color-interpolation-filters="sRGB">
<feFlood flood-opacity="0" result="BackgroundImageFix"/>
<feBlend mode="normal" in="SourceGraphic" in2="BackgroundImageFix" result="shape"/>
<feGaussianBlur stdDeviation="5.43601" result="effect1_foregroundBlur_109_262"/>
</filter>
<filter id="filter1_f_109_262" x="507.437" y="604.394" width="95.9833" height="78.7898" filterUnits="userSpaceOnUse" color-interpolation-filters="sRGB">
<feFlood flood-opacity="0" result="BackgroundImageFix"/>
<feBlend mode="normal" in="SourceGraphic" in2="BackgroundImageFix" result="shape"/>
<feGaussianBlur stdDeviation="12.9105" result="effect1_foregroundBlur_109_262"/>
</filter>
<linearGradient id="paint0_linear_109_262" x1="500.292" y1="167.837" x2="500.292" y2="636.013" gradientUnits="userSpaceOnUse">
<stop stop-color="#6E4BEE"/>
<stop offset="1" stop-color="#00EAFF"/>
</linearGradient>
<linearGradient id="paint1_linear_109_262" x1="484.973" y1="34.4692" x2="484.973" y2="69.3734" gradientUnits="userSpaceOnUse">
<stop stop-color="#69FE97"/>
<stop offset="1" stop-color="#07BCCE"/>
</linearGradient>
<linearGradient id="paint2_linear_109_262" x1="484.973" y1="34.4692" x2="484.973" y2="69.3734" gradientUnits="userSpaceOnUse">
<stop stop-color="#69FE97"/>
<stop offset="1" stop-color="#69FE97" stop-opacity="0"/>
</linearGradient>
</defs>
</svg>
