<svg width="52" height="52" viewBox="0 0 52 52" fill="none" xmlns="http://www.w3.org/2000/svg">
<path d="M42.9 35.4499V16.5499C44.5564 15.6433 45.6798 13.8854 45.6798 11.8641C45.6798 8.91569 43.2895 6.52539 40.3411 6.52539C38.5171 6.52539 36.9084 7.44174 35.9454 8.83779H16.555C15.592 7.44174 13.9832 6.52539 12.1592 6.52539C9.21083 6.52539 6.82053 8.91569 6.82053 11.8641C6.82053 13.8854 7.94393 15.6438 9.60033 16.5499V35.4494C7.94393 36.356 6.82053 38.1138 6.82053 40.1351C6.82053 43.0836 9.21083 45.4739 12.1592 45.4739C14.3994 45.4739 16.3141 44.0927 17.1064 42.1365H35.3934C36.1858 44.0922 38.1005 45.4739 40.3406 45.4739C43.289 45.4739 45.6793 43.0836 45.6793 40.1351C45.6793 38.1144 44.5559 36.3565 42.9 35.4499ZM14.7125 35.4463V16.5535C15.7652 15.979 16.6031 15.0611 17.0751 13.9495H35.4257C35.8977 15.0606 36.7357 15.979 37.7883 16.5535V35.4463C37.0816 35.8317 36.4758 36.3754 36.0084 37.0253H16.4924C16.025 36.3749 15.4187 35.8317 14.7125 35.4463Z" fill="white"/>
</svg>
