<svg width="49" height="48" viewBox="0 0 49 48" fill="none" xmlns="http://www.w3.org/2000/svg">
<path d="M24.5834 47.2324C23.8057 47.239 23.0415 47.0301 22.3754 46.6289L14.0508 41.7604C10.9344 40.0175 8.33325 37.4828 6.51034 34.4125C4.68743 31.3422 3.70732 27.8451 3.66907 24.2747V10.9718C3.66944 10.0754 3.94432 9.20053 4.45675 8.46498C4.96918 7.72944 5.69457 7.16846 6.53535 6.85751L23.0748 0.782083C24.0489 0.425504 25.1178 0.425504 26.0919 0.782083L42.6314 6.85751C43.4721 7.16846 44.1975 7.72944 44.71 8.46498C45.2224 9.20053 45.4973 10.0754 45.4976 10.9718V24.2747C45.4594 27.8451 44.4793 31.3422 42.6564 34.4125C40.8335 37.4828 38.2323 40.0175 35.1159 41.7604L26.7914 46.6289C26.1252 47.0301 25.361 47.239 24.5834 47.2324ZM24.5834 3.95008C24.4745 3.93027 24.363 3.93027 24.2542 3.95008L7.71478 10.0529C7.52848 10.1219 7.36862 10.2478 7.25785 10.4127C7.14709 10.5776 7.09103 10.7732 7.09764 10.9718V24.2747C7.13741 27.2456 7.96116 30.1532 9.48556 32.7035C11.01 35.2538 13.1809 37.3563 15.7788 38.7981L24.1034 43.6804C24.2506 43.7608 24.4156 43.8029 24.5834 43.8029C24.7511 43.8029 24.9161 43.7608 25.0634 43.6804L33.3879 38.7981C35.9858 37.3563 38.1567 35.2538 39.6811 32.7035C41.2055 30.1532 42.0293 27.2456 42.0691 24.2747V10.9718C42.0699 10.7779 42.0112 10.5884 41.9008 10.4289C41.7904 10.2695 41.6337 10.1478 41.4519 10.0804L24.9125 4.00494C24.807 3.96672 24.6955 3.94813 24.5834 3.95008Z" fill="white"/>
<path d="M23.0743 30.6515C22.6696 30.6488 22.2779 30.5086 21.9635 30.2538L16.1075 25.3166C15.7583 25.0238 15.5397 24.6043 15.4999 24.1504C15.46 23.6964 15.6021 23.2452 15.8949 22.8961C16.1877 22.5469 16.6072 22.3283 17.0612 22.2884C17.5151 22.2486 17.9663 22.3907 18.3155 22.6835L22.9098 26.5509L30.7543 17.9109C31.0599 17.5726 31.4873 17.3696 31.9425 17.3465C32.3977 17.3233 32.8435 17.482 33.1818 17.7875C33.52 18.093 33.7231 18.5204 33.7462 18.9756C33.7694 19.4309 33.6107 19.8766 33.3052 20.2149L24.4183 30.0892C24.2482 30.2744 24.04 30.4205 23.808 30.5176C23.5759 30.6147 23.3257 30.6603 23.0743 30.6515Z" fill="white"/>
</svg>
