<svg width="59" height="58" viewBox="0 0 59 58" fill="none" xmlns="http://www.w3.org/2000/svg">
<path d="M47.6912 16.9167C48.2439 13.7635 45.8173 10.875 42.6162 10.875H16.217C13.0157 10.875 10.5894 13.7635 11.1419 16.9167" stroke="white" stroke-width="3.625"/>
<path d="M42.7071 10.8752C42.7758 10.2491 42.8101 9.93593 42.8106 9.67734C42.8161 7.20357 40.9526 5.12504 38.4929 4.86109C38.2358 4.8335 37.9209 4.8335 37.2911 4.8335H21.5398C20.9099 4.8335 20.5949 4.8335 20.3378 4.86109C17.8781 5.12504 16.0148 7.20357 16.0202 9.67732C16.0208 9.93593 16.0551 10.249 16.1236 10.8752" stroke="white" stroke-width="3.625"/>
<path d="M35.6539 32.9052C37.0034 33.7419 37.0034 35.9074 35.6539 36.7441L27.5059 41.7952C26.1944 42.6081 24.5827 41.5501 24.5827 39.8758V29.7734C24.5827 28.0994 26.1944 27.0412 27.5059 27.8541L35.6539 32.9052Z" stroke="white" stroke-width="3.625"/>
<path d="M6.17749 33.3334C5.09958 25.688 4.56064 21.8655 6.85128 19.3912C9.14192 16.917 13.2198 16.917 21.3756 16.917H37.459C45.6148 16.917 49.6927 16.917 51.9834 19.3912C54.274 21.8655 53.735 25.688 52.6572 33.3334L51.635 40.5834C50.7896 46.5789 50.3672 49.5765 48.1989 51.3719C46.0307 53.167 42.8327 53.167 36.4368 53.167H22.3978C16.002 53.167 12.804 53.167 10.6358 51.3719C8.46762 49.5765 8.04497 46.5789 7.19967 40.5834L6.17749 33.3334Z" stroke="white" stroke-width="3.625"/>
</svg>
