<svg width="54" height="54" viewBox="0 0 54 54" fill="none" xmlns="http://www.w3.org/2000/svg">
<path d="M5.14487 17.2033C5.14487 15.4922 5.50378 13.8649 6.15045 12.3926L11.6988 17.941C13.3993 19.6414 16.1562 19.6414 17.8566 17.941C19.5571 16.2406 19.5571 13.4836 17.8566 11.7832L12.3082 6.23483C13.7805 5.58817 15.4078 5.22925 17.1189 5.22925C23.7321 5.22925 29.093 10.5902 29.093 17.2033C29.093 18.9144 28.734 20.5417 28.0874 22.014L47.4569 41.3835C49.1574 43.0841 49.1574 45.8409 47.4569 47.5413C45.7566 49.2418 42.9997 49.2418 41.2992 47.5413L21.9296 28.1718C20.4574 28.8184 18.8301 29.1774 17.1189 29.1774C10.5058 29.1774 5.14487 23.8165 5.14487 17.2033Z" stroke="white" stroke-width="4.35421" stroke-linecap="round" stroke-linejoin="round"/>
</svg>
