<svg width="59" height="58" viewBox="0 0 59 58" fill="none" xmlns="http://www.w3.org/2000/svg">
<path d="M31.8007 8.71777C35.2354 9.9684 41.9417 13.3759 41.6154 21.1968C41.6043 21.4326 41.6855 21.6635 41.842 21.8403L46.482 26.9787C46.7775 27.3106 46.9408 27.7396 46.9408 28.184C46.9408 28.6285 46.7775 29.0574 46.482 29.3893L44.7601 31.3468C44.0524 32.159 43.6572 33.1968 43.6454 34.274L43.582 38.9684C43.582 39.6895 43.2955 40.381 42.7857 40.8908C42.2758 41.4007 41.5843 41.6871 40.8632 41.6871H38.942C37.9806 41.6871 37.0585 42.0691 36.3787 42.7489C35.6989 43.4287 35.317 44.3507 35.317 45.3121V49.1547C35.317 49.395 35.2215 49.6255 35.0515 49.7955C34.8816 49.9654 34.6511 50.0609 34.4107 50.0609H23.1279C22.8876 50.0609 22.6571 49.9654 22.4871 49.7955C22.3171 49.6255 22.2217 49.395 22.2217 49.1547V37.2012C22.2224 36.858 22.1257 36.5217 21.9428 36.2313C21.7599 35.941 21.4984 35.7085 21.1885 35.5609C17.9714 34.0022 8.57354 28.4559 11.9357 18.1246C12.77 15.3422 14.4484 12.8878 16.7389 11.1012" stroke="white" stroke-width="2.71875" stroke-miterlimit="10" stroke-linecap="round"/>
<path d="M20.202 19.9375C20.202 16.8744 18.317 14.3187 17.293 12.4247C16.7274 11.3926 16.4196 10.2391 16.3958 9.0625C16.3958 5.03875 20.0661 1.8125 24.0898 1.8125" stroke="white" stroke-width="2.71875" stroke-miterlimit="10"/>
<path d="M28.0425 19.9375C28.0425 16.8744 29.9366 14.3187 30.9516 12.4247C31.5034 11.3894 31.7957 10.2356 31.8034 9.0625C31.8034 5.03875 28.1784 1.8125 24.1184 1.8125" stroke="white" stroke-width="2.71875" stroke-miterlimit="10"/>
<path d="M28.6108 19.7925H19.9289C19.2332 19.7925 18.6692 20.3565 18.6692 21.0522V22.194C18.6692 22.8897 19.2332 23.4537 19.9289 23.4537H28.6108C29.3065 23.4537 29.8705 22.8897 29.8705 22.194V21.0522C29.8705 20.3565 29.3065 19.7925 28.6108 19.7925Z" stroke="white" stroke-width="2.71875" stroke-miterlimit="10"/>
<path d="M27.0809 23.4541V25.3754C27.0809 26.5263 26.0025 27.4507 24.2716 27.4507C22.3684 27.4507 21.4622 26.5444 21.4622 25.3754V23.4541" stroke="white" stroke-width="2.71875" stroke-miterlimit="10"/>
</svg>
